<svg viewBox="0 0 140 80" xmlns="http://www.w3.org/2000/svg">
  <defs>
    <linearGradient id="carroGrad" x1="0" y1="0" x2="0" y2="1">
      <stop offset="0%" stop-color="var(--color-vehiculo, #6B7280)" stop-opacity="0.95"/>
      <stop offset="100%" stop-color="var(--color-vehiculo, #4B5563)" stop-opacity="0.8"/>
    </linearGradient>
    <linearGradient id="vidrioGrad" x1="0" y1="0" x2="1" y2="1">
      <stop offset="0%" stop-color="#93C5FD" stop-opacity="0.5"/>
      <stop offset="100%" stop-color="#60A5FA" stop-opacity="0.3"/>
    </linearGradient>
    <radialGradient id="farolGrad" cx="0.5" cy="0.5" r="0.5">
      <stop offset="0%" stop-color="#FEF3C7"/>
      <stop offset="60%" stop-color="#F59E0B"/>
      <stop offset="100%" stop-color="#D97706"/>
    </radialGradient>
    <radialGradient id="frenoGrad" cx="0.5" cy="0.5" r="0.5">
      <stop offset="0%" stop-color="#FCA5A5"/>
      <stop offset="100%" stop-color="#EF4444"/>
    </radialGradient>
    <radialGradient id="rinGrad" cx="0.5" cy="0.5" r="0.5">
      <stop offset="0%" stop-color="#9CA3AF"/>
      <stop offset="100%" stop-color="#4B5563"/>
    </radialGradient>
  </defs>
  <rect x="22" y="32" width="96" height="34" rx="8" fill="url(#carroGrad)"/>
  <rect x="44" y="16" width="54" height="20" rx="5" fill="url(#carroGrad)"/>
  <rect x="46" y="20" width="24" height="12" rx="3" fill="url(#vidrioGrad)"/>
  <rect x="72" y="20" width="24" height="12" rx="3" fill="url(#vidrioGrad)"/>
  <rect x="46" y="26" width="50" height="2" rx="1" fill="rgba(255,255,255,0.12)"/>
  <line x1="68" y1="20" x2="68" y2="32" stroke="var(--color-vehiculo, #374151)" stroke-width="0.8" opacity="0.3"/>
  <rect x="56" y="36" width="18" height="16" rx="2" fill="var(--color-vehiculo, #374151)" opacity="0.2"/>
  <line x1="65" y1="36" x2="65" y2="52" stroke="var(--color-vehiculo, #374151)" stroke-width="0.6" opacity="0.15"/>
  <circle cx="42" cy="64" r="9" fill="#1F2937"/>
  <circle cx="42" cy="64" r="4.5" fill="url(#rinGrad)"/>
  <circle cx="42" cy="64" r="1.5" fill="#6B7280"/>
  <circle cx="98" cy="64" r="9" fill="#1F2937"/>
  <circle cx="98" cy="64" r="4.5" fill="url(#rinGrad)"/>
  <circle cx="98" cy="64" r="1.5" fill="#6B7280"/>
  <rect x="14" y="48" width="10" height="14" rx="3" fill="var(--color-vehiculo, #4B5563)" opacity="0.5"/>
  <ellipse cx="17" cy="48" rx="5" ry="6" fill="url(#farolGrad)"/>
  <rect x="116" y="48" width="10" height="14" rx="3" fill="var(--color-vehiculo, #4B5563)" opacity="0.5"/>
  <ellipse cx="123" cy="48" rx="4" ry="6" fill="url(#frenoGrad)"/>
  <rect x="22" y="56" width="96" height="3" rx="1.5" fill="var(--color-vehiculo, #374151)" opacity="0.15"/>
  <rect x="36" y="30" width="10" height="8" rx="2" fill="var(--color-vehiculo, #4B5563)" opacity="0.25"/>
  <rect x="94" y="30" width="10" height="8" rx="2" fill="var(--color-vehiculo, #4B5563)" opacity="0.25"/>
  <rect x="34" y="44" width="4" height="18" rx="1" fill="var(--color-vehiculo, #374151)" opacity="0.12"/>
  <rect x="102" y="44" width="4" height="18" rx="1" fill="var(--color-vehiculo, #374151)" opacity="0.12"/>
</svg>
